Coordinates
version=1
nRows=32
nColumns=12
inDegrees=yes

Units are S.I. units (second, meters, Newtons, ...)
Angles are in degrees

endheader
time	SC_y	SC_z	SC_x	AC_y	AC_z	AC_x	GH_y	GH_z	GH_yy	EL_x	PS_y
       0.0              -12.72          4.486          53.99          30.21         -16.21         -2.255          110.7          29.64         -100.2          48.07           98.3
   0.02894              -12.73          4.488          53.99          30.21         -16.21         -2.256          110.7          29.65         -100.2          48.08          98.28
   0.05789              -12.74           4.49          53.99          30.22          -16.2         -2.257          110.7          29.65         -100.2          48.09          98.27
   0.08683              -12.74          4.492           54.0          30.22          -16.2         -2.258          110.6          29.66         -100.2          48.09          98.26
    0.1158              -12.75          4.494           54.0          30.22          -16.2         -2.259          110.6          29.67         -100.2           48.1          98.24
    0.1447              -12.76          4.496          54.01          30.23          -16.2         -2.261          110.6          29.68         -100.2          48.11          98.22
    0.1737              -12.76          4.499          54.01          30.23          -16.2         -2.262          110.6           29.7         -100.1          48.12           98.2
    0.2026              -12.77          4.502          54.02          30.24          -16.2         -2.264          110.6          29.71         -100.1          48.13          98.19
    0.2315              -12.78          4.504          54.02          30.24          -16.2         -2.265          110.6          29.72         -100.1          48.14          98.16
    0.2605              -12.79          4.507          54.03          30.25          -16.2         -2.267          110.6          29.73         -100.1          48.15          98.14
    0.2894               -12.8          4.511          54.04          30.25         -16.19         -2.269          110.5          29.75         -100.0          48.16          98.12
    0.3184              -12.81          4.514          54.05          30.26         -16.19         -2.271          110.5          29.77         -100.0          48.17          98.09
    0.3473              -12.82          4.518          54.05          30.27         -16.19         -2.274          110.5          29.78         -99.99          48.19          98.06
    0.3763              -12.83          4.522          54.06          30.27         -16.19         -2.276          110.5           29.8         -99.96           48.2          98.03
    0.4052              -12.85          4.527          54.07          30.28         -16.19         -2.279          110.4          29.82         -99.92          48.22           98.0
    0.4341              -12.86          4.532          54.08          30.29         -16.18         -2.282          110.4          29.84         -99.89          48.23          97.97
    0.4631              -12.88          4.537          54.09           30.3         -16.18         -2.285          110.4          29.87         -99.84          48.25          97.93
     0.492              -12.89          4.543          54.11          30.31         -16.18         -2.288          110.3          29.89          -99.8          48.27          97.89
     0.521              -12.91          4.549          54.12          30.32         -16.17         -2.292          110.3          29.92         -99.75          48.29          97.84
    0.5499              -12.93          4.556          54.13          30.33         -16.17         -2.296          110.2          29.95          -99.7          48.32          97.79
    0.5789              -12.96          4.563          54.15          30.35         -16.17           -2.3          110.2          29.99         -99.64          48.34          97.74
    0.6078              -12.98          4.572          54.17          30.36         -16.16         -2.305          110.1          30.02         -99.58          48.37          97.68
    0.6367              -13.01          4.581          54.19          30.38         -16.16         -2.311          110.1          30.06          -99.5          48.41          97.61
    0.6657              -13.04          4.591          54.21          30.39         -16.15         -2.317          110.0          30.11         -99.43          48.44          97.54
    0.6946              -13.07          4.602          54.23          30.41         -16.15         -2.323          110.0          30.16         -99.34          48.48          97.46
    0.7236              -13.11          4.615          54.26          30.43         -16.14         -2.331          109.9          30.22         -99.24          48.53          97.36
    0.7525              -13.15          4.629          54.29          30.46         -16.14         -2.339          109.8          30.28         -99.13          48.57          97.26
    0.7815               -13.2          4.645          54.32          30.49         -16.13         -2.349          109.7          30.35         -99.01          48.63          97.15
    0.8104              -13.26          4.663          54.36          30.52         -16.12         -2.359          109.6          30.43         -98.87          48.69          97.02
    0.8393              -13.32          4.683           54.4          30.55         -16.11         -2.371          109.4          30.53         -98.71          48.76          96.87
    0.8683              -13.39          4.706          54.45          30.59          -16.1         -2.385          109.3          30.63         -98.53          48.85           96.7
    0.8972              -13.47          4.733          54.51          30.64         -16.08         -2.401          109.1          30.75         -98.33          48.94          96.51
